<svg xmlns="http://www.w3.org/2000/svg" viewBox="0 0 48 48"><path fill="#bbdefb" d="M6,10c0-2.209,1.791-4,4-4h28c2.209,0,4,1.791,4,4v28c0,2.209-1.791,4-4,4H10c-2.209,0-4-1.791-4-4 V10z"/><path fill="#1976d2" d="M23.995,19c0.828,0,1.1,0.266,1.306,0.538C25.758,20.14,26,21.195,26,22.59v2.832 c0,1.402-0.239,2.456-0.688,3.045C25.105,28.737,24.836,29,24.014,29c-0.837,0-1.11-0.266-1.317-0.539 C22.241,27.861,22,26.811,22,25.422v-2.844c0-1.402,0.238-2.456,0.689-3.046C22.895,19.263,23.165,19,23.995,19 M23.995,16 c-1.59,0-2.819,0.57-3.69,1.711C19.434,18.852,19,20.475,19,22.578v2.844c0,2.09,0.436,3.707,1.309,4.855 C21.183,31.426,22.418,32,24.014,32c1.583,0,2.809-0.57,3.681-1.711C28.565,29.148,29,27.525,29,25.422V22.59 c0-2.098-0.438-3.719-1.31-4.867C26.816,16.574,25.584,16,23.995,16L23.995,16z"/></svg>