<svg xmlns="http://www.w3.org/2000/svg" viewBox="0 0 48 48"><path fill="#90a4ae" d="M37,42H11c-2.2,0-4-1.8-4-4v-4h34v4C41,40.2,39.2,42,37,42z"/><path fill="#cfd8dc" d="M39,37H9c-1.1,0-2-0.9-2-2V8c0-1.1,0.9-2,2-2h30c1.1,0,2,0.9,2,2v27C41,36.1,40.1,37,39,37z"/><path fill="#546e7a" d="M27.7,22.9c0,1.7-0.3,3-1,3.8C26,27.6,25.1,28,24,28c-1.1,0-2-0.4-2.7-1.3c-0.7-0.9-1-2.1-1-3.8v-2.7 c0-1.7,0.3-3,1-3.8C22,15.4,22.9,15,24,15c1.1,0,2,0.4,2.7,1.3c0.7,0.9,1,2.2,1,3.8V22.9z M25.2,19.9c0-1-0.1-1.8-0.3-2.2 C24.7,17.2,24.4,17,24,17H24c-0.4,0-0.7,0.2-0.9,0.7c-0.2,0.5-0.3,1.2-0.3,2.2v3.1c0,1,0.1,1.8,0.3,2.3c0.2,0.5,0.5,0.7,0.9,0.7H24 c0.4,0,0.7-0.2,0.9-0.7c0.2-0.5,0.3-1.2,0.3-2.3V19.9z"/></svg>